<svg width="165" height="46" viewBox="0 0 165 46" fill="none" xmlns="http://www.w3.org/2000/svg">
<g clip-path="url(#clip0)">
<path d="M19.9062 18.709C19.9062 19.4746 19.7604 20.1992 19.4688 20.8828C19.1771 21.5573 18.776 22.1452 18.2656 22.6465C17.7643 23.1478 17.1719 23.5443 16.4883 23.8359C15.8138 24.1276 15.0892 24.2734 14.3145 24.2734C13.6217 24.2734 12.9564 24.1549 12.3184 23.918C11.6803 23.6719 11.1016 23.3164 10.582 22.8516C10.0716 23.3164 9.4974 23.6719 8.85938 23.918C8.23047 24.1549 7.5651 24.2734 6.86328 24.2734C6.08854 24.2734 5.36393 24.1276 4.68945 23.8359C4.01497 23.5443 3.42253 23.1478 2.91211 22.6465C2.41081 22.1452 2.01432 21.5573 1.72266 20.8828C1.43099 20.1992 1.28516 19.4746 1.28516 18.709V9.38477H5.01758V18.709C5.01758 18.9642 5.06315 19.2057 5.1543 19.4336C5.25456 19.6523 5.38672 19.8483 5.55078 20.0215C5.72396 20.1855 5.91992 20.3177 6.13867 20.418C6.36654 20.5091 6.60807 20.5547 6.86328 20.5547C7.11849 20.5547 7.36003 20.5091 7.58789 20.418C7.81576 20.3177 8.01628 20.1855 8.18945 20.0215C8.36263 19.8483 8.49479 19.6523 8.58594 19.4336C8.6862 19.2057 8.73633 18.9642 8.73633 18.709V9.38477H12.4551V18.709C12.4551 18.9642 12.5052 19.2057 12.6055 19.4336C12.7057 19.6523 12.8379 19.8483 13.002 20.0215C13.1751 20.1855 13.3711 20.3177 13.5898 20.418C13.8177 20.5091 14.0592 20.5547 14.3145 20.5547C14.5697 20.5547 14.8112 20.5091 15.0391 20.418C15.2669 20.3177 15.4629 20.1855 15.627 20.0215C15.8001 19.8483 15.9368 19.6523 16.0371 19.4336C16.1374 19.2057 16.1875 18.9642 16.1875 18.709V9.38477H19.9062V18.709ZM26.5956 5.37891C26.5956 5.72526 26.5273 6.04883 26.3905 6.34961C26.2629 6.65039 26.0852 6.91471 25.8573 7.14258C25.6295 7.36133 25.3606 7.53906 25.0507 7.67578C24.7499 7.80339 24.4264 7.86719 24.08 7.86719C23.7336 7.86719 23.4055 7.80339 23.0956 7.67578C22.7948 7.53906 22.5305 7.36133 22.3027 7.14258C22.0839 6.91471 21.9062 6.65039 21.7695 6.34961C21.6418 6.04883 21.578 5.72526 21.578 5.37891C21.578 5.04167 21.6418 4.72266 21.7695 4.42188C21.9062 4.11198 22.0839 3.84766 22.3027 3.62891C22.5305 3.40104 22.7948 3.22331 23.0956 3.0957C23.4055 2.95898 23.7336 2.89062 24.08 2.89062C24.4264 2.89062 24.7499 2.95898 25.0507 3.0957C25.3606 3.22331 25.6295 3.40104 25.8573 3.62891C26.0852 3.84766 26.2629 4.11198 26.3905 4.42188C26.5273 4.72266 26.5956 5.04167 26.5956 5.37891ZM25.953 24H22.1933V9.35742H25.953V24ZM32.1502 24H28.3905V3.5332H32.1502V24ZM38.3474 24H34.5877V3.5332H38.3474V24ZM62.8688 16.5488C62.8688 17.6973 62.6728 18.7454 62.2809 19.6934C61.8889 20.6413 61.3557 21.457 60.6813 22.1406C60.0068 22.8151 59.2138 23.3392 58.3023 23.7129C57.4 24.0866 56.4293 24.2734 55.3902 24.2734C54.3603 24.2734 53.3896 24.082 52.4781 23.6992C51.5758 23.3164 50.7828 22.7832 50.0992 22.0996C49.4247 21.416 48.8915 20.6048 48.4996 19.666C48.1077 18.7181 47.9117 17.679 47.9117 16.5488V3.5332H51.6578V10.3691C51.8583 10.1139 52.0999 9.88607 52.3824 9.68555C52.6741 9.48503 52.984 9.32096 53.3121 9.19336C53.6494 9.06576 53.9957 8.97005 54.3512 8.90625C54.7066 8.83333 55.053 8.79688 55.3902 8.79688C56.4293 8.79688 57.4 8.99284 58.3023 9.38477C59.2138 9.76758 60.0068 10.3053 60.6813 10.998C61.3557 11.6908 61.8889 12.5111 62.2809 13.459C62.6728 14.3978 62.8688 15.4277 62.8688 16.5488ZM59.109 16.5488C59.109 15.9837 59.0087 15.4596 58.8082 14.9766C58.6168 14.4844 58.3525 14.0605 58.0152 13.7051C57.678 13.3496 57.2815 13.0716 56.8258 12.8711C56.3792 12.6706 55.9007 12.5703 55.3902 12.5703C54.8798 12.5703 54.3967 12.6842 53.941 12.9121C53.4944 13.1309 53.1025 13.4271 52.7652 13.8008C52.428 14.1654 52.1637 14.5892 51.9723 15.0723C51.7809 15.5462 51.6852 16.0384 51.6852 16.5488C51.6852 17.1139 51.7809 17.638 51.9723 18.1211C52.1637 18.6042 52.428 19.0234 52.7652 19.3789C53.1025 19.7344 53.4944 20.0169 53.941 20.2266C54.3967 20.4271 54.8798 20.5273 55.3902 20.5273C55.9007 20.5273 56.3792 20.4271 56.8258 20.2266C57.2815 20.0169 57.678 19.7344 58.0152 19.3789C58.3525 19.0234 58.6168 18.6042 58.8082 18.1211C59.0087 17.638 59.109 17.1139 59.109 16.5488ZM78.7046 24H77.8023L76.353 21.9902C75.9976 22.3092 75.6193 22.61 75.2183 22.8926C74.8264 23.166 74.4116 23.4076 73.9741 23.6172C73.5366 23.8177 73.0855 23.9772 72.6206 24.0957C72.1649 24.2142 71.7001 24.2734 71.2261 24.2734C70.1961 24.2734 69.2254 24.1003 68.314 23.7539C67.4116 23.4076 66.6187 22.9062 65.9351 22.25C65.2606 21.5846 64.7274 20.7734 64.3355 19.8164C63.9435 18.8594 63.7476 17.7702 63.7476 16.5488C63.7476 15.4095 63.9435 14.3659 64.3355 13.418C64.7274 12.4609 65.2606 11.6406 65.9351 10.957C66.6187 10.2734 67.4116 9.74479 68.314 9.37109C69.2254 8.98828 70.1961 8.79688 71.2261 8.79688C71.7001 8.79688 72.1695 8.85612 72.6343 8.97461C73.0991 9.0931 73.5503 9.25716 73.9878 9.4668C74.4253 9.67643 74.84 9.92253 75.232 10.2051C75.633 10.4876 76.0067 10.793 76.353 11.1211L77.8023 9.38477H78.7046V24ZM74.9448 16.5488C74.9448 16.0384 74.8446 15.5462 74.6441 15.0723C74.4527 14.5892 74.1883 14.1654 73.8511 13.8008C73.5139 13.4271 73.1174 13.1309 72.6616 12.9121C72.215 12.6842 71.7365 12.5703 71.2261 12.5703C70.7157 12.5703 70.2326 12.6569 69.7769 12.8301C69.3303 13.0033 68.9383 13.2585 68.6011 13.5957C68.273 13.9329 68.0132 14.3522 67.8218 14.8535C67.6304 15.3457 67.5347 15.9108 67.5347 16.5488C67.5347 17.1868 67.6304 17.7565 67.8218 18.2578C68.0132 18.75 68.273 19.1647 68.6011 19.502C68.9383 19.8392 69.3303 20.0944 69.7769 20.2676C70.2326 20.4408 70.7157 20.5273 71.2261 20.5273C71.7365 20.5273 72.215 20.418 72.6616 20.1992C73.1174 19.9714 73.5139 19.6751 73.8511 19.3105C74.1883 18.9368 74.4527 18.513 74.6441 18.0391C74.8446 17.556 74.9448 17.0592 74.9448 16.5488ZM85.5444 5.37891C85.5444 5.72526 85.476 6.04883 85.3393 6.34961C85.2117 6.65039 85.034 6.91471 84.8061 7.14258C84.5782 7.36133 84.3093 7.53906 83.9995 7.67578C83.6987 7.80339 83.3751 7.86719 83.0287 7.86719C82.6824 7.86719 82.3543 7.80339 82.0444 7.67578C81.7436 7.53906 81.4793 7.36133 81.2514 7.14258C81.0327 6.91471 80.8549 6.65039 80.7182 6.34961C80.5906 6.04883 80.5268 5.72526 80.5268 5.37891C80.5268 5.04167 80.5906 4.72266 80.7182 4.42188C80.8549 4.11198 81.0327 3.84766 81.2514 3.62891C81.4793 3.40104 81.7436 3.22331 82.0444 3.0957C82.3543 2.95898 82.6824 2.89062 83.0287 2.89062C83.3751 2.89062 83.6987 2.95898 83.9995 3.0957C84.3093 3.22331 84.5782 3.40104 84.8061 3.62891C85.034 3.84766 85.2117 4.11198 85.3393 4.42188C85.476 4.72266 85.5444 5.04167 85.5444 5.37891ZM84.9018 24H81.142V9.35742H84.9018V24ZM91.099 24H87.3392V3.5332H91.099V24ZM99.3606 20.418C99.5065 20.4635 99.6523 20.4954 99.7981 20.5137C99.944 20.5228 100.09 20.5273 100.236 20.5273C100.6 20.5273 100.951 20.4772 101.288 20.377C101.626 20.2767 101.94 20.1354 102.232 19.9531C102.533 19.7617 102.797 19.5339 103.025 19.2695C103.262 18.9961 103.453 18.6953 103.599 18.3672L106.333 21.1152C105.987 21.6074 105.586 22.0495 105.13 22.4414C104.684 22.8333 104.196 23.166 103.667 23.4395C103.148 23.7129 102.596 23.918 102.013 24.0547C101.439 24.2005 100.846 24.2734 100.236 24.2734C99.2057 24.2734 98.235 24.082 97.3235 23.6992C96.4212 23.3164 95.6282 22.7832 94.9446 22.0996C94.2701 21.416 93.7369 20.6048 93.345 19.666C92.9531 18.7181 92.7571 17.679 92.7571 16.5488C92.7571 15.3913 92.9531 14.334 93.345 13.377C93.7369 12.4199 94.2701 11.6042 94.9446 10.9297C95.6282 10.2552 96.4212 9.73112 97.3235 9.35742C98.235 8.98372 99.2057 8.79688 100.236 8.79688C100.846 8.79688 101.443 8.86979 102.027 9.01562C102.61 9.16146 103.161 9.37109 103.681 9.64453C104.21 9.91797 104.702 10.2552 105.158 10.6562C105.613 11.0482 106.014 11.4902 106.361 11.9824L99.3606 20.418ZM101.275 12.7207C101.102 12.6569 100.928 12.6159 100.755 12.5977C100.591 12.5794 100.418 12.5703 100.236 12.5703C99.7252 12.5703 99.2421 12.666 98.7864 12.8574C98.3398 13.0397 97.9479 13.304 97.6106 13.6504C97.2825 13.9967 97.0227 14.416 96.8313 14.9082C96.6399 15.3913 96.5442 15.9382 96.5442 16.5488C96.5442 16.6855 96.5488 16.8405 96.5579 17.0137C96.5761 17.1868 96.5989 17.3646 96.6263 17.5469C96.6627 17.7201 96.7037 17.8887 96.7493 18.0527C96.7949 18.2168 96.8541 18.3626 96.927 18.4902L101.275 12.7207ZM111.355 29.5781V25.8184L113.433 25.8457C113.797 25.8457 114.148 25.7865 114.486 25.668C114.823 25.5495 115.133 25.3854 115.415 25.1758C115.707 24.9661 115.962 24.7155 116.181 24.4238C116.4 24.1413 116.577 23.8314 116.714 23.4941C116.304 23.6673 115.885 23.8405 115.456 24.0137C115.037 24.1868 114.613 24.2734 114.185 24.2734C113.282 24.2734 112.435 24.1139 111.642 23.7949C110.849 23.4759 110.152 23.0247 109.55 22.4414C108.958 21.849 108.488 21.1335 108.142 20.2949C107.805 19.4473 107.636 18.4993 107.636 17.4512V9.35742H111.355V17.4512C111.355 17.9707 111.428 18.4264 111.573 18.8184C111.728 19.2012 111.933 19.5247 112.189 19.7891C112.444 20.0443 112.74 20.2357 113.077 20.3633C113.424 20.4909 113.793 20.5547 114.185 20.5547C114.568 20.5547 114.928 20.4681 115.265 20.2949C115.611 20.1126 115.912 19.8757 116.167 19.584C116.422 19.2923 116.623 18.9642 116.769 18.5996C116.915 18.2259 116.988 17.8431 116.988 17.4512V9.35742H120.747V22.1543C120.738 23.1842 120.538 24.1504 120.146 25.0527C119.754 25.9551 119.216 26.7435 118.532 27.418C117.858 28.0924 117.07 28.6257 116.167 29.0176C115.265 29.4095 114.299 29.6055 113.269 29.6055L111.355 29.5781Z" fill="#E3F6F0"/>
<path d="M2.632 34.096V37.946H7.7V38.842H2.632V43H1.596V33.2H8.316V34.096H2.632ZM10.8507 37.078C11.084 36.5833 11.4293 36.21 11.8867 35.958C12.3533 35.706 12.9273 35.58 13.6087 35.58V36.546L13.3707 36.532C12.596 36.532 11.9893 36.77 11.5507 37.246C11.112 37.722 10.8927 38.3893 10.8927 39.248V43H9.89866V35.636H10.8507V37.078ZM18.1401 43.07C17.4307 43.07 16.7914 42.9113 16.2221 42.594C15.6527 42.2673 15.2047 41.8193 14.8781 41.25C14.5514 40.6807 14.3881 40.0367 14.3881 39.318C14.3881 38.5993 14.5514 37.9553 14.8781 37.386C15.2047 36.8167 15.6527 36.3733 16.2221 36.056C16.7914 35.7387 17.4307 35.58 18.1401 35.58C18.8494 35.58 19.4887 35.7387 20.0581 36.056C20.6274 36.3733 21.0707 36.8167 21.3881 37.386C21.7147 37.9553 21.8781 38.5993 21.8781 39.318C21.8781 40.0367 21.7147 40.6807 21.3881 41.25C21.0707 41.8193 20.6274 42.2673 20.0581 42.594C19.4887 42.9113 18.8494 43.07 18.1401 43.07ZM18.1401 42.188C18.6627 42.188 19.1294 42.0713 19.5401 41.838C19.9601 41.5953 20.2867 41.2547 20.5201 40.816C20.7534 40.3773 20.8701 39.878 20.8701 39.318C20.8701 38.758 20.7534 38.2587 20.5201 37.82C20.2867 37.3813 19.9601 37.0453 19.5401 36.812C19.1294 36.5693 18.6627 36.448 18.1401 36.448C17.6174 36.448 17.1461 36.5693 16.7261 36.812C16.3154 37.0453 15.9887 37.3813 15.7461 37.82C15.5127 38.2587 15.3961 38.758 15.3961 39.318C15.3961 39.878 15.5127 40.3773 15.7461 40.816C15.9887 41.2547 16.3154 41.5953 16.7261 41.838C17.1461 42.0713 17.6174 42.188 18.1401 42.188ZM27.4494 35.58C28.3734 35.58 29.1061 35.8507 29.6474 36.392C30.1981 36.924 30.4734 37.7033 30.4734 38.73V43H29.4794V38.828C29.4794 38.0627 29.2881 37.4793 28.9054 37.078C28.5227 36.6767 27.9767 36.476 27.2674 36.476C26.4741 36.476 25.8441 36.714 25.3774 37.19C24.9201 37.6567 24.6914 38.3053 24.6914 39.136V43H23.6974V35.636H24.6494V36.994C24.9201 36.546 25.2934 36.2007 25.7694 35.958C26.2547 35.706 26.8147 35.58 27.4494 35.58ZM36.84 42.552C36.6533 42.72 36.42 42.8507 36.14 42.944C35.8693 43.028 35.5847 43.07 35.286 43.07C34.5953 43.07 34.0633 42.8833 33.69 42.51C33.3167 42.1367 33.13 41.6093 33.13 40.928V36.476H31.814V35.636H33.13V34.026H34.124V35.636H36.364V36.476H34.124V40.872C34.124 41.3107 34.2313 41.6467 34.446 41.88C34.67 42.104 34.9873 42.216 35.398 42.216C35.6033 42.216 35.7993 42.1833 35.986 42.118C36.182 42.0527 36.35 41.9593 36.49 41.838L36.84 42.552ZM37.7568 38.772H41.4248V39.64H37.7568V38.772ZM50.5785 42.104V43H43.6485V33.2H50.3685V34.096H44.6845V37.582H49.7525V38.464H44.6845V42.104H50.5785ZM56.3457 35.58C57.2697 35.58 58.0024 35.8507 58.5437 36.392C59.0944 36.924 59.3697 37.7033 59.3697 38.73V43H58.3757V38.828C58.3757 38.0627 58.1844 37.4793 57.8017 37.078C57.4191 36.6767 56.8731 36.476 56.1637 36.476C55.3704 36.476 54.7404 36.714 54.2737 37.19C53.8164 37.6567 53.5877 38.3053 53.5877 39.136V43H52.5937V35.636H53.5457V36.994C53.8164 36.546 54.1897 36.2007 54.6657 35.958C55.1511 35.706 55.7111 35.58 56.3457 35.58ZM68.6057 32.612V43H67.6537V41.544C67.355 42.0387 66.9584 42.4167 66.4637 42.678C65.9784 42.9393 65.4277 43.07 64.8117 43.07C64.121 43.07 63.4957 42.9113 62.9357 42.594C62.3757 42.2767 61.937 41.8333 61.6197 41.264C61.3024 40.6947 61.1437 40.046 61.1437 39.318C61.1437 38.59 61.3024 37.9413 61.6197 37.372C61.937 36.8027 62.3757 36.364 62.9357 36.056C63.4957 35.7387 64.121 35.58 64.8117 35.58C65.409 35.58 65.9457 35.706 66.4217 35.958C66.907 36.2007 67.3037 36.56 67.6117 37.036V32.612H68.6057ZM64.8957 42.188C65.409 42.188 65.871 42.0713 66.2817 41.838C66.7017 41.5953 67.0284 41.2547 67.2617 40.816C67.5044 40.3773 67.6257 39.878 67.6257 39.318C67.6257 38.758 67.5044 38.2587 67.2617 37.82C67.0284 37.3813 66.7017 37.0453 66.2817 36.812C65.871 36.5693 65.409 36.448 64.8957 36.448C64.373 36.448 63.9017 36.5693 63.4817 36.812C63.071 37.0453 62.7444 37.3813 62.5017 37.82C62.2684 38.2587 62.1517 38.758 62.1517 39.318C62.1517 39.878 62.2684 40.3773 62.5017 40.816C62.7444 41.2547 63.071 41.5953 63.4817 41.838C63.9017 42.0713 64.373 42.188 64.8957 42.188ZM74.828 33.2H78.818C79.854 33.2 80.7687 33.41 81.562 33.83C82.3554 34.2407 82.9714 34.8193 83.41 35.566C83.8487 36.3033 84.068 37.148 84.068 38.1C84.068 39.052 83.8487 39.9013 83.41 40.648C82.9714 41.3853 82.3554 41.964 81.562 42.384C80.7687 42.7947 79.854 43 78.818 43H74.828V33.2ZM78.762 42.104C79.6207 42.104 80.372 41.936 81.016 41.6C81.66 41.2547 82.1594 40.7833 82.514 40.186C82.8687 39.5793 83.046 38.884 83.046 38.1C83.046 37.316 82.8687 36.6253 82.514 36.028C82.1594 35.4213 81.66 34.95 81.016 34.614C80.372 34.2687 79.6207 34.096 78.762 34.096H75.864V42.104H78.762ZM92.3864 39.626H86.2264C86.2824 40.3913 86.5764 41.012 87.1084 41.488C87.6404 41.9547 88.3124 42.188 89.1244 42.188C89.5818 42.188 90.0018 42.1087 90.3844 41.95C90.7671 41.782 91.0984 41.5393 91.3784 41.222L91.9384 41.866C91.6118 42.258 91.2011 42.5567 90.7064 42.762C90.2211 42.9673 89.6844 43.07 89.0964 43.07C88.3404 43.07 87.6684 42.9113 87.0804 42.594C86.5018 42.2673 86.0491 41.8193 85.7224 41.25C85.3958 40.6807 85.2324 40.0367 85.2324 39.318C85.2324 38.5993 85.3864 37.9553 85.6944 37.386C86.0118 36.8167 86.4411 36.3733 86.9824 36.056C87.5331 35.7387 88.1491 35.58 88.8304 35.58C89.5118 35.58 90.1231 35.7387 90.6644 36.056C91.2058 36.3733 91.6304 36.8167 91.9384 37.386C92.2464 37.946 92.4004 38.59 92.4004 39.318L92.3864 39.626ZM88.8304 36.434C88.1211 36.434 87.5238 36.6627 87.0384 37.12C86.5624 37.568 86.2918 38.156 86.2264 38.884H91.4484C91.3831 38.156 91.1078 37.568 90.6224 37.12C90.1464 36.6627 89.5491 36.434 88.8304 36.434ZM100.265 35.636L96.9889 43H95.9669L92.7049 35.636H93.7409L96.4989 41.908L99.2849 35.636H100.265ZM112.133 43.154L110.775 41.754C109.944 42.6407 108.852 43.084 107.499 43.084C106.864 43.084 106.295 42.9813 105.791 42.776C105.296 42.5613 104.909 42.2673 104.629 41.894C104.349 41.5113 104.209 41.0773 104.209 40.592C104.209 40.004 104.396 39.4767 104.769 39.01C105.142 38.5433 105.777 38.0533 106.673 37.54C106.206 37.0547 105.884 36.644 105.707 36.308C105.53 35.9627 105.441 35.5987 105.441 35.216C105.441 34.5907 105.665 34.0867 106.113 33.704C106.561 33.3213 107.163 33.13 107.919 33.13C108.619 33.13 109.174 33.3027 109.585 33.648C109.996 33.9933 110.201 34.4693 110.201 35.076C110.201 35.5613 110.038 36 109.711 36.392C109.384 36.7747 108.82 37.1993 108.017 37.666L110.705 40.438C111.004 39.906 111.223 39.276 111.363 38.548L112.175 38.8C111.998 39.6773 111.708 40.4287 111.307 41.054L112.707 42.496L112.133 43.154ZM107.919 33.872C107.434 33.872 107.051 33.9933 106.771 34.236C106.5 34.4787 106.365 34.8007 106.365 35.202C106.365 35.4913 106.44 35.7667 106.589 36.028C106.738 36.2893 107.032 36.644 107.471 37.092C108.18 36.6813 108.67 36.3313 108.941 36.042C109.212 35.7527 109.347 35.4353 109.347 35.09C109.347 34.7167 109.221 34.4227 108.969 34.208C108.717 33.984 108.367 33.872 107.919 33.872ZM107.555 42.258C108.638 42.258 109.515 41.8893 110.187 41.152L107.233 38.114C106.458 38.5527 105.922 38.9493 105.623 39.304C105.334 39.6587 105.189 40.0553 105.189 40.494C105.189 41.026 105.404 41.4553 105.833 41.782C106.272 42.0993 106.846 42.258 107.555 42.258ZM117.728 33.2H121.718C122.754 33.2 123.669 33.41 124.462 33.83C125.256 34.2407 125.872 34.8193 126.31 35.566C126.749 36.3033 126.968 37.148 126.968 38.1C126.968 39.052 126.749 39.9013 126.31 40.648C125.872 41.3853 125.256 41.964 124.462 42.384C123.669 42.7947 122.754 43 121.718 43H117.728V33.2ZM121.662 42.104C122.521 42.104 123.272 41.936 123.916 41.6C124.56 41.2547 125.06 40.7833 125.414 40.186C125.769 39.5793 125.946 38.884 125.946 38.1C125.946 37.316 125.769 36.6253 125.414 36.028C125.06 35.4213 124.56 34.95 123.916 34.614C123.272 34.2687 122.521 34.096 121.662 34.096H118.764V42.104H121.662ZM135.287 39.626H129.127C129.183 40.3913 129.477 41.012 130.009 41.488C130.541 41.9547 131.213 42.188 132.025 42.188C132.482 42.188 132.902 42.1087 133.285 41.95C133.667 41.782 133.999 41.5393 134.279 41.222L134.839 41.866C134.512 42.258 134.101 42.5567 133.607 42.762C133.121 42.9673 132.585 43.07 131.997 43.07C131.241 43.07 130.569 42.9113 129.981 42.594C129.402 42.2673 128.949 41.8193 128.623 41.25C128.296 40.6807 128.133 40.0367 128.133 39.318C128.133 38.5993 128.287 37.9553 128.595 37.386C128.912 36.8167 129.341 36.3733 129.883 36.056C130.433 35.7387 131.049 35.58 131.731 35.58C132.412 35.58 133.023 35.7387 133.565 36.056C134.106 36.3733 134.531 36.8167 134.839 37.386C135.147 37.946 135.301 38.59 135.301 39.318L135.287 39.626ZM131.731 36.434C131.021 36.434 130.424 36.6627 129.939 37.12C129.463 37.568 129.192 38.156 129.127 38.884H134.349C134.283 38.156 134.008 37.568 133.523 37.12C133.047 36.6627 132.449 36.434 131.731 36.434ZM139.088 43.07C138.49 43.07 137.916 42.986 137.366 42.818C136.824 42.6407 136.4 42.4213 136.092 42.16L136.54 41.376C136.848 41.6187 137.235 41.8193 137.702 41.978C138.168 42.1273 138.654 42.202 139.158 42.202C139.83 42.202 140.324 42.0993 140.642 41.894C140.968 41.6793 141.132 41.3807 141.132 40.998C141.132 40.7273 141.043 40.5173 140.866 40.368C140.688 40.2093 140.464 40.0927 140.194 40.018C139.923 39.934 139.564 39.8547 139.116 39.78C138.518 39.668 138.038 39.556 137.674 39.444C137.31 39.3227 136.997 39.122 136.736 38.842C136.484 38.562 136.358 38.1747 136.358 37.68C136.358 37.064 136.614 36.56 137.128 36.168C137.641 35.776 138.355 35.58 139.27 35.58C139.746 35.58 140.222 35.6453 140.698 35.776C141.174 35.8973 141.566 36.0607 141.874 36.266L141.44 37.064C140.833 36.644 140.11 36.434 139.27 36.434C138.635 36.434 138.154 36.546 137.828 36.77C137.51 36.994 137.352 37.288 137.352 37.652C137.352 37.932 137.44 38.156 137.618 38.324C137.804 38.492 138.033 38.618 138.304 38.702C138.574 38.7767 138.948 38.856 139.424 38.94C140.012 39.052 140.483 39.164 140.838 39.276C141.192 39.388 141.496 39.5793 141.748 39.85C142 40.1207 142.126 40.494 142.126 40.97C142.126 41.614 141.855 42.1273 141.314 42.51C140.782 42.8833 140.04 43.07 139.088 43.07ZM143.753 35.636H144.747V43H143.753V35.636ZM144.257 34.026C144.052 34.026 143.879 33.956 143.739 33.816C143.599 33.676 143.529 33.508 143.529 33.312C143.529 33.1253 143.599 32.962 143.739 32.822C143.879 32.682 144.052 32.612 144.257 32.612C144.463 32.612 144.635 32.682 144.775 32.822C144.915 32.9527 144.985 33.1113 144.985 33.298C144.985 33.5033 144.915 33.676 144.775 33.816C144.635 33.956 144.463 34.026 144.257 34.026ZM154.121 35.636V42.104C154.121 43.3547 153.813 44.2787 153.197 44.876C152.591 45.4827 151.671 45.786 150.439 45.786C149.758 45.786 149.109 45.6833 148.493 45.478C147.887 45.282 147.392 45.0067 147.009 44.652L147.513 43.896C147.868 44.2133 148.297 44.4607 148.801 44.638C149.315 44.8153 149.851 44.904 150.411 44.904C151.345 44.904 152.031 44.6847 152.469 44.246C152.908 43.8167 153.127 43.1447 153.127 42.23V41.292C152.819 41.7587 152.413 42.1133 151.909 42.356C151.415 42.5987 150.864 42.72 150.257 42.72C149.567 42.72 148.937 42.5707 148.367 42.272C147.807 41.964 147.364 41.5393 147.037 40.998C146.72 40.4473 146.561 39.8267 146.561 39.136C146.561 38.4453 146.72 37.8293 147.037 37.288C147.364 36.7467 147.807 36.3267 148.367 36.028C148.927 35.7293 149.557 35.58 150.257 35.58C150.883 35.58 151.447 35.706 151.951 35.958C152.455 36.21 152.861 36.574 153.169 37.05V35.636H154.121ZM150.355 41.838C150.887 41.838 151.368 41.726 151.797 41.502C152.227 41.2687 152.558 40.9467 152.791 40.536C153.034 40.1253 153.155 39.6587 153.155 39.136C153.155 38.6133 153.034 38.1513 152.791 37.75C152.558 37.3393 152.227 37.022 151.797 36.798C151.377 36.5647 150.897 36.448 150.355 36.448C149.823 36.448 149.343 36.56 148.913 36.784C148.493 37.008 148.162 37.3253 147.919 37.736C147.686 38.1467 147.569 38.6133 147.569 39.136C147.569 39.6587 147.686 40.1253 147.919 40.536C148.162 40.9467 148.493 41.2687 148.913 41.502C149.343 41.726 149.823 41.838 150.355 41.838ZM160.443 35.58C161.367 35.58 162.1 35.8507 162.641 36.392C163.192 36.924 163.467 37.7033 163.467 38.73V43H162.473V38.828C162.473 38.0627 162.282 37.4793 161.899 37.078C161.516 36.6767 160.97 36.476 160.261 36.476C159.468 36.476 158.838 36.714 158.371 37.19C157.914 37.6567 157.685 38.3053 157.685 39.136V43H156.691V35.636H157.643V36.994C157.914 36.546 158.287 36.2007 158.763 35.958C159.248 35.706 159.808 35.58 160.443 35.58Z" fill="#E3F6F0"/>
</g>
<defs>
<clipPath id="clip0">
<rect width="165" height="46" fill="white"/>
</clipPath>
</defs>
</svg>
